<?xml version="1.0" standalone="no"?>
<!DOCTYPE svg PUBLIC "-//W3C//DTD SVG 20010904//EN"
 "http://www.w3.org/TR/2001/REC-SVG-20010904/DTD/svg10.dtd">
<svg version="1.0" xmlns="http://www.w3.org/2000/svg"
 width="2000.000000pt" height="2000.000000pt" viewBox="0 0 2000.000000 2000.000000"
 preserveAspectRatio="xMidYMid meet">
<metadata>
Created by potrace 1.16, written by Peter Selinger 2001-2019
</metadata>
<g transform="translate(0.000000,2000.000000) scale(0.100000,-0.100000)"
fill="#000000" stroke="none">
<path d="M11387 15749 c-70 -11 -131 -44 -181 -100 -54 -61 -76 -121 -76 -213
0 -149 95 -266 244 -301 28 -7 85 -22 127 -34 42 -11 159 -38 260 -60 242 -53
266 -58 388 -81 57 -11 105 -21 107 -23 2 -2 -14 -82 -37 -178 -92 -393 -201
-862 -229 -979 -16 -69 -54 -232 -84 -362 -31 -131 -81 -345 -112 -475 -30
-131 -68 -294 -85 -363 -16 -69 -67 -289 -114 -490 -46 -201 -93 -394 -104
-430 -35 -119 -43 -184 -40 -312 l4 -125 47 -94 c25 -52 64 -130 86 -174 21
-44 51 -100 66 -125 15 -25 43 -79 62 -120 38 -80 239 -492 257 -525 24 -45
84 -172 97 -205 8 -19 23 -51 35 -70 11 -19 36 -69 54 -110 35 -78 42 -93 84
-175 13 -27 52 -106 85 -175 153 -318 201 -418 287 -595 51 -104 118 -244 150
-310 31 -66 77 -158 100 -205 24 -47 53 -109 65 -138 l23 -53 -60 -122 c-34
-67 -89 -180 -123 -252 -74 -155 -149 -308 -303 -625 -63 -129 -136 -282 -163
-340 -27 -58 -51 -107 -54 -110 -3 -3 -30 -59 -60 -125 -29 -66 -56 -122 -60
-125 -7 -6 -70 -138 -70 -147 0 -4 -19 -35 -41 -70 -60 -92 -89 -178 -89 -266
0 -173 131 -307 301 -307 88 0 148 22 210 78 53 48 57 54 314 587 31 66 99
206 150 310 86 177 134 277 287 595 33 69 72 148 85 175 42 82 49 97 84 175
18 41 43 91 54 110 12 19 27 51 35 70 13 34 75 164 98 205 24 45 172 354 172
360 0 4 40 89 88 189 49 99 115 235 147 301 32 66 99 206 150 310 51 105 123
253 160 330 120 249 187 389 203 425 10 19 24 46 33 60 8 14 22 41 29 60 13
35 76 167 98 205 6 11 27 57 46 101 44 99 48 178 15 278 -39 118 -109 164
-263 173 -201 12 -225 -19 -581 -752 -35 -71 -115 -236 -178 -365 -63 -129
-136 -282 -163 -340 -27 -58 -51 -107 -54 -110 -3 -3 -30 -59 -60 -125 -29
-66 -56 -122 -60 -125 -3 -3 -13 -20 -22 -39 -16 -33 -16 -33 -23 -10 -4 13
-11 26 -14 29 -4 3 -28 52 -55 110 -27 58 -100 211 -163 340 -201 413 -262
538 -425 880 -33 69 -79 163 -103 210 -24 47 -57 119 -75 160 -18 41 -41 86
-51 100 -10 14 -34 75 -54 135 -20 61 -86 211 -147 334 l-111 224 15 51 c19
61 42 166 58 256 10 55 117 522 240 1040 16 69 61 262 100 430 88 377 233 997
346 1480 101 430 105 470 52 579 -35 72 -101 130 -228 198 -141 76 -207 95
-540 159 -219 42 -539 116 -561 130 -18 11 -137 19 -182 13z"/>
<path d="M5965 14825 c-67 -16 -148 -59 -173 -90 -11 -14 -24 -25 -29 -25 -13
0 -61 -52 -84 -91 -65 -113 -64 -105 -64 -349 0 -204 2 -232 23 -303 34 -119
67 -174 156 -263 157 -157 390 -258 721 -314 121 -20 153 -22 509 -17 410 4
491 12 762 73 65 15 142 31 169 36 28 6 113 30 190 54 77 24 144 44 149 44 14
0 279 121 296 135 8 7 29 20 47 29 17 8 41 32 54 53 13 21 31 47 41 57 55 60
172 294 184 367 9 56 -11 115 -49 138 -55 33 -130 59 -197 66 -36 4 -68 9 -72
11 -3 2 -37 6 -75 9 -37 3 -75 7 -83 10 -8 2 -42 7 -75 10 -33 3 -73 8 -90 10
-16 3 -82 7 -145 10 -63 2 -135 7 -160 10 -25 2 -90 7 -145 10 -55 3 -125 8
-155 10 -62 6 -234 42 -267 57 -11 6 -26 8 -31 4 -6 -3 -12 -2 -14 4 -1 5 -59
16 -127 25 -68 8 -138 19 -155 24 -17 5 -67 17 -111 27 -44 9 -89 20 -100 24
-11 5 -54 18 -95 30 -41 12 -106 32 -145 45 -102 34 -150 43 -342 65 -193 22
-246 23 -318 5z"/>
<path d="M8374 13120 c-66 -14 -160 -95 -194 -168 -13 -26 -31 -65 -42 -87
-10 -22 -25 -51 -33 -65 -8 -14 -46 -92 -85 -175 -40 -82 -103 -213 -140 -290
-37 -77 -80 -168 -95 -203 -22 -50 -31 -60 -40 -50 -6 7 -42 92 -80 188 -37
96 -76 193 -85 215 -9 22 -52 128 -95 235 -43 107 -89 211 -103 230 -48 63
-120 116 -172 126 -92 16 -181 2 -246 -38 -96 -61 -156 -177 -147 -283 3 -42
79 -256 139 -390 7 -16 31 -77 54 -135 22 -58 45 -114 50 -125 5 -11 41 -101
80 -200 39 -99 75 -189 80 -200 5 -11 43 -105 85 -209 73 -181 75 -191 62
-220 -79 -171 -112 -242 -117 -246 -3 -3 -30 -59 -60 -125 -29 -66 -56 -122
-60 -125 -7 -6 -39 -74 -87 -185 -19 -43 -39 -85 -45 -92 -14 -18 -5 -145 15
-201 20 -58 82 -125 144 -157 72 -37 195 -40 266 -6 87 42 128 93 201 245 36
77 68 137 70 135 2 -2 45 -107 95 -234 51 -126 96 -239 101 -250 5 -11 28 -67
50 -125 23 -58 45 -114 50 -125 5 -11 19 -45 30 -75 11 -30 25 -64 30 -75 5
-11 28 -67 50 -125 23 -58 46 -116 53 -130 6 -14 12 -27 13 -30 2 -3 -29 -6
-67 -7 -104 -2 -164 -26 -230 -92 -67 -67 -89 -123 -89 -226 0 -125 67 -227
184 -281 48 -23 62 -24 252 -24 l201 0 223 -557 c122 -307 229 -571 236 -588
7 -16 31 -77 54 -135 22 -58 45 -114 50 -125 12 -25 590 -1472 614 -1537 23
-62 87 -133 150 -166 l51 -27 600 0 600 0 42 23 c67 35 110 79 143 144 25 51
30 73 30 133 0 103 -22 159 -89 226 -93 93 -90 92 -595 93 l-429 1 -249 620
c-137 341 -252 627 -255 635 -3 8 -24 60 -45 115 -21 55 -43 109 -48 120 -5
11 -99 245 -209 520 l-200 500 322 5 c304 5 325 6 369 27 106 49 178 164 178
283 0 124 -64 226 -176 281 l-65 32 -439 1 -439 0 -10 23 c-6 12 -42 102 -81
200 -39 98 -75 187 -80 198 -5 11 -144 357 -309 769 l-299 748 18 42 c18 44
155 328 197 411 41 81 49 96 84 175 18 41 43 91 54 110 12 19 27 51 35 70 13
34 75 164 98 205 49 90 176 367 197 430 22 63 26 90 20 130 -12 94 -58 164
-155 237 -44 33 -152 45 -236 28z"/>
<path d="M5715 13113 c-136 -20 -314 -89 -435 -168 -93 -60 -252 -218 -309
-305 -127 -195 -181 -379 -181 -615 0 -313 101 -557 319 -776 148 -147 302
-236 503 -291 73 -20 107 -23 273 -23 215 0 280 13 443 83 144 62 311 184 347
252 8 17 23 45 33 63 12 22 17 54 17 102 -1 174 -151 316 -319 303 -106 -9
-191 -64 -271 -178 l-50 -70 -119 0 c-75 0 -140 6 -179 16 -82 21 -265 115
-304 156 -35 36 -113 184 -113 214 0 41 53 312 70 356 42 108 195 274 283 306
66 25 166 35 245 26 57 -6 63 -9 86 -45 73 -110 263 -131 352 -38 15 16 33 28
40 25 6 -2 28 27 48 65 71 131 57 240 -47 369 -46 57 -65 71 -161 120 l-108
55 -216 1 c-119 1 -230 0 -247 -3z"/>
<path d="M10045 13113 c-136 -20 -314 -89 -435 -168 -93 -60 -252 -218 -309
-305 -127 -195 -181 -379 -181 -615 0 -313 101 -557 319 -776 148 -147 302
-236 503 -291 73 -20 107 -23 273 -23 215 0 280 13 443 83 144 62 311 184 347
252 8 17 23 45 33 63 12 22 17 54 17 102 -1 174 -151 316 -319 303 -106 -9
-191 -64 -271 -178 l-50 -70 -119 0 c-75 0 -140 6 -179 16 -82 21 -265 115
-304 156 -35 36 -113 184 -113 214 0 41 53 312 70 356 42 108 195 274 283 306
66 25 166 35 245 26 57 -6 63 -9 86 -45 73 -110 263 -131 352 -38 15 16 33 28
40 25 6 -2 28 27 48 65 71 131 57 240 -47 369 -46 57 -65 71 -161 120 l-108
55 -216 1 c-119 1 -230 0 -247 -3z"/>
<path d="M13675 13113 c-136 -20 -314 -89 -435 -168 -93 -60 -252 -218 -309
-305 -127 -195 -181 -379 -181 -615 0 -313 101 -557 319 -776 148 -147 302
-236 503 -291 73 -20 107 -23 273 -23 215 0 280 13 443 83 144 62 311 184 347
252 8 17 23 45 33 63 12 22 17 54 17 102 -1 174 -151 316 -319 303 -106 -9
-191 -64 -271 -178 l-50 -70 -119 0 c-75 0 -140 6 -179 16 -78 20 -253 107
-295 147 -31 29 -80 107 -67 107 3 0 47 -7 97 -16 201 -35 555 4 701 78 124
62 230 161 287 267 38 69 84 220 101 329 11 74 11 96 -5 185 -20 116 -35 156
-99 253 -82 124 -110 150 -224 206 l-106 53 -216 1 c-119 1 -229 0 -246 -3z
m262 -549 c47 -6 55 -11 79 -47 25 -39 26 -43 14 -94 -27 -124 -108 -157 -368
-151 -137 3 -149 5 -179 27 l-32 24 22 31 c43 61 149 158 195 178 71 32 171
43 269 32z"/>
<path d="M3965 11010 c-195 -22 -339 -43 -354 -51 -9 -4 -50 -15 -91 -24 -100
-21 -334 -85 -340 -94 -3 -3 -61 -29 -130 -56 -170 -66 -262 -111 -415 -203
-251 -150 -331 -210 -593 -445 -149 -135 -363 -391 -507 -607 -63 -93 -310
-568 -302 -577 3 -2 -9 -39 -25 -81 -71 -186 -101 -287 -143 -499 -26 -124
-48 -255 -51 -292 -2 -36 -9 -122 -14 -191 -12 -134 2 -628 19 -672 5 -13 12
-48 16 -78 12 -92 64 -349 75 -367 5 -10 24 -67 41 -127 33 -117 88 -278 98
-286 4 -3 26 -50 50 -105 58 -132 132 -280 167 -330 15 -22 71 -105 125 -185
121 -181 293 -385 435 -517 122 -114 321 -282 344 -291 8 -3 38 -22 65 -43
176 -129 459 -278 705 -371 158 -60 458 -143 548 -152 30 -3 79 -10 110 -16
284 -51 780 -38 1092 29 160 35 491 131 515 151 5 4 49 24 96 43 117 48 314
143 330 160 8 7 43 30 79 52 211 125 377 256 640 505 172 162 442 534 553 760
60 122 68 144 77 227 12 110 1 233 -29 313 -39 105 -162 214 -283 252 -201 62
-420 -45 -523 -256 -138 -282 -229 -414 -443 -640 -126 -133 -241 -230 -377
-317 -49 -32 -103 -68 -118 -80 -44 -34 -232 -123 -332 -158 -49 -18 -105 -38
-122 -47 -47 -21 -163 -50 -283 -68 -58 -9 -123 -22 -145 -28 -63 -18 -470
-13 -585 6 -292 50 -463 106 -760 249 -25 12 -90 52 -145 88 -93 62 -150 104
-283 211 -88 70 -231 226 -326 353 -50 66 -102 136 -116 155 -40 52 -111 182
-159 288 -22 50 -41 94 -41 97 0 3 -13 33 -29 67 -47 100 -119 371 -147 553
-7 50 -16 174 -20 277 -11 283 23 550 98 787 16 52 32 105 34 118 14 73 153
358 264 538 109 177 374 463 555 600 105 80 235 160 399 245 82 43 318 129
446 161 97 25 361 60 470 62 116 3 342 -11 412 -24 116 -23 259 1 324 54 10 9
34 28 53 44 49 40 108 136 133 216 16 54 19 87 16 160 -3 81 -8 101 -38 161
-53 104 -128 177 -226 220 -143 63 -241 78 -544 81 -146 2 -301 -1 -345 -5z"/>
<path d="M15720 10887 c-3 -3 -75 -7 -160 -10 -313 -10 -452 -69 -530 -224
-20 -39 -24 -63 -23 -128 1 -136 63 -239 178 -298 53 -27 117 -30 210 -12 127
26 504 27 676 2 414 -59 796 -220 1146 -483 174 -130 415 -388 558 -599 72
-106 222 -392 267 -510 119 -310 186 -703 173 -1006 -8 -202 -25 -377 -40
-424 -7 -22 -19 -67 -25 -100 -56 -279 -189 -600 -348 -840 -241 -365 -498
-611 -875 -839 -165 -99 -489 -224 -677 -261 -276 -54 -295 -56 -540 -52 -255
4 -390 22 -620 86 -675 185 -1263 691 -1579 1356 -40 85 -101 138 -190 165
-61 18 -79 19 -128 11 -99 -19 -184 -85 -224 -176 -26 -58 -35 -190 -19 -278
25 -138 198 -427 414 -692 147 -179 429 -441 611 -566 164 -113 431 -260 579
-319 39 -16 107 -43 150 -60 69 -27 205 -66 406 -115 59 -15 253 -41 415 -55
197 -18 560 2 728 40 27 6 52 8 56 6 18 -12 340 80 516 146 191 73 459 210
590 303 33 23 83 57 110 76 166 110 466 392 614 579 241 302 450 685 551 1010
23 74 50 160 60 191 10 30 28 107 39 170 12 63 28 152 36 198 51 279 41 828
-21 1115 -14 66 -31 144 -36 171 -9 47 -69 235 -133 420 -35 100 -206 435
-281 552 -187 290 -438 569 -703 781 -402 322 -900 544 -1406 628 -143 23
-514 52 -525 41z"/>
<path d="M6070 10230 c-184 -25 -308 -215 -256 -392 38 -131 162 -223 300
-222 84 0 143 23 205 80 97 87 127 208 84 339 -23 69 -110 156 -178 177 -68
22 -102 26 -155 18z"/>
<path d="M6684 9350 c-73 -10 -139 -47 -191 -104 -51 -57 -74 -99 -96 -173
l-16 -53 51 -97 c48 -93 105 -221 113 -253 2 -8 15 -49 30 -90 37 -107 113
-422 134 -555 11 -69 36 -415 48 -655 l6 -124 45 -48 c26 -28 72 -62 110 -80
57 -28 78 -33 161 -36 84 -3 104 -1 165 22 147 56 245 159 282 301 19 71 18
429 -1 560 -9 55 -21 139 -27 188 -7 48 -15 87 -19 87 -4 0 -10 26 -14 58 -4
31 -13 75 -21 97 -7 22 -18 65 -25 95 -6 30 -15 60 -19 65 -5 6 -16 39 -25 75
-9 36 -20 70 -25 75 -4 6 -15 35 -25 65 -9 30 -26 71 -37 90 -11 19 -29 64
-40 100 -22 71 -95 205 -142 258 -94 107 -250 155 -422 132z"/>
</g>
</svg>
